<svg width="174" height="36" viewBox="0 0 174 36" fill="none" xmlns="http://www.w3.org/2000/svg">
<path d="M57.3752 30.56L52.0152 11.32H51.8152L51.6552 30.56H44.3352L46.1752 0.879998H54.3752L60.6552 21.48H60.8552L67.1752 0.879998H75.3752L77.2152 30.56H69.8952L69.7352 11.32H69.5352L64.1752 30.56H57.3752ZM90.777 24.76C92.1104 24.76 93.297 24.3333 94.337 23.48C95.377 22.6 95.897 21.28 95.897 19.52C95.897 17.84 95.377 16.5467 94.337 15.64C93.297 14.7333 92.1104 14.28 90.777 14.28C89.4704 14.28 88.3104 14.7333 87.297 15.64C86.3104 16.5467 85.817 17.84 85.817 19.52C85.817 21.28 86.3104 22.6 87.297 23.48C88.3104 24.3333 89.4704 24.76 90.777 24.76ZM90.857 31.08C89.097 31.08 87.4837 30.8133 86.017 30.28C84.5504 29.72 83.2837 28.9333 82.217 27.92C81.177 26.9067 80.3637 25.6933 79.777 24.28C79.1904 22.8667 78.897 21.28 78.897 19.52C78.897 17.7333 79.2037 16.12 79.817 14.68C80.457 13.24 81.3237 12.0267 82.417 11.04C83.4837 10.0533 84.737 9.29333 86.177 8.76C87.6437 8.22667 89.2037 7.96 90.857 7.96C92.4837 7.96 94.017 8.22667 95.457 8.76C96.9237 9.29333 98.2037 10.0533 99.297 11.04C100.364 12.0267 101.217 13.24 101.857 14.68C102.497 16.12 102.817 17.7333 102.817 19.52C102.817 21.28 102.51 22.8667 101.897 24.28C101.31 25.6933 100.497 26.9067 99.457 27.92C98.3904 28.9333 97.1237 29.72 95.657 30.28C94.1904 30.8133 92.5904 31.08 90.857 31.08ZM113.075 31.32H105.195V24.08H113.075V31.32ZM132.199 24.16C133.612 24.16 134.772 24.1333 135.679 24.08C136.585 24 137.519 23.88 138.479 23.72V30C137.599 30.24 136.439 30.4 134.999 30.48C133.585 30.5333 132.305 30.56 131.159 30.56H117.399V28.04L128.279 7.28H118.159V0.879998H137.999V3.92L127.359 24.16H132.199ZM163.084 30.88C161.937 30.88 160.857 30.68 159.844 30.28C158.83 29.88 158.004 29.32 157.364 28.6V35.56H150.484V8.56H157.364V10.52C157.924 9.88 158.71 9.34667 159.724 8.92C160.764 8.49333 161.95 8.25333 163.284 8.2C164.724 8.17333 166.057 8.41333 167.284 8.92C168.537 9.4 169.63 10.12 170.564 11.08C171.47 12.0667 172.177 13.2933 172.684 14.76C173.217 16.2 173.497 17.8533 173.524 19.72C173.55 21.6667 173.297 23.3467 172.764 24.76C172.23 26.1733 171.497 27.3333 170.564 28.24C169.604 29.1467 168.484 29.8133 167.204 30.24C165.924 30.6667 164.55 30.88 163.084 30.88ZM161.924 24.76C162.51 24.8133 163.097 24.76 163.684 24.6C164.27 24.4133 164.79 24.12 165.244 23.72C165.724 23.32 166.097 22.7733 166.364 22.08C166.657 21.3867 166.804 20.5333 166.804 19.52C166.804 18.6133 166.657 17.84 166.364 17.2C166.097 16.5333 165.75 15.9867 165.324 15.56C164.897 15.1333 164.404 14.8267 163.844 14.64C163.31 14.4267 162.777 14.32 162.244 14.32C160.884 14.32 159.764 14.8533 158.884 15.92C158.03 16.9867 157.604 18.4 157.604 20.16C157.604 21.3333 158.004 22.3733 158.804 23.28C159.63 24.1867 160.67 24.68 161.924 24.76Z" fill="#5296FF"/>
<path d="M0 4.41667C0 3.08198 1.08198 2 2.41667 2H14.5V4.41667H0Z" fill="#3A6BB5"/>
<path d="M-1.52588e-05 4.41653H36.25C37.5847 4.41653 38.6667 5.49851 38.6667 6.8332H-1.52588e-05V4.41653Z" fill="#3A6BB5"/>
<rect width="38.6667" height="24.1667" transform="translate(-1.52588e-05 6.83321)" fill="#5296FF"/>
<path d="M20.2396 4.41654L14.5 1.99988V4.41654H20.2396Z" fill="#3A6BB5"/>
<rect width="2.41667" height="2.41667" transform="matrix(0 -1 1 0 2.41664 14.9895)" fill="white"/>
<rect width="2.41667" height="2.41667" transform="matrix(0 -1 1 0 7.24997 14.9895)" fill="white"/>
<rect width="2.41667" height="2.41667" transform="matrix(0 -1 1 0 12.0833 14.9895)" fill="white"/>
<rect width="2.41667" height="2.41667" transform="matrix(0 -1 1 0 16.9166 14.9895)" fill="white"/>
<rect width="2.41667" height="2.41667" transform="matrix(0 -1 1 0 -1.52588e-05 17.4061)" fill="white"/>
<rect width="2.41667" height="2.41667" transform="matrix(0 -1 1 0 4.83331 17.4061)" fill="white"/>
<rect width="2.41667" height="2.41667" transform="matrix(0 -1 1 0 9.66666 17.4061)" fill="white"/>
<rect width="2.41667" height="2.41667" transform="matrix(0 -1 1 0 14.5 17.4061)" fill="white"/>
<rect width="4.83333" height="4.83333" transform="translate(19.3333 12.5728)" fill="white"/>
<rect x="20.5416" y="14.3853" width="2.41667" height="2.41667" fill="#5296FF"/>
<rect width="6" height="1" transform="translate(142 12)" fill="#5296FF"/>
<rect width="4" height="3" transform="translate(142 16.0208)" fill="#5296FF"/>
<rect width="4" height="3" transform="translate(142 22.0417)" fill="#5296FF"/>
<rect width="4" height="3" transform="translate(142 28.0625)" fill="#5296FF"/>
<rect width="4" height="3" transform="translate(144 13)" fill="#5296FF"/>
<rect width="4" height="3" transform="translate(144 19.0208)" fill="#5296FF"/>
<rect width="4" height="3" transform="translate(144 25.0417)" fill="#5296FF"/>
<rect width="6.04167" height="6.04167" transform="translate(142 1)" fill="#5296FF"/>
</svg>
