<svg width="102" height="102" viewBox="0 0 102 102" fill="none" xmlns="http://www.w3.org/2000/svg">
<path d="M0 6C0 2.68629 2.68629 0 6 0H36V6H0Z" fill="#3A6BB5"/>
<path d="M0 6H90C93.3137 6 96 8.68629 96 12H0V6Z" fill="#3A6BB5"/>
<rect width="96" height="60" transform="translate(0 12)" fill="#5296FF"/>
<path d="M50.25 6L36 0V6H50.25Z" fill="#3A6BB5"/>
<rect width="6" height="6" transform="matrix(0 -1 1 0 6 32.25)" fill="white"/>
<rect width="6" height="6" transform="matrix(0 -1 1 0 18 32.25)" fill="white"/>
<rect width="6" height="6" transform="matrix(0 -1 1 0 30 32.25)" fill="white"/>
<rect width="6" height="6" transform="matrix(0 -1 1 0 42 32.25)" fill="white"/>
<rect width="6" height="6" transform="matrix(0 -1 1 0 0 38.25)" fill="white"/>
<rect width="6" height="6" transform="matrix(0 -1 1 0 12 38.25)" fill="white"/>
<rect width="6" height="6" transform="matrix(0 -1 1 0 24 38.25)" fill="white"/>
<rect width="6" height="6" transform="matrix(0 -1 1 0 36 38.25)" fill="white"/>
<rect width="12" height="12" transform="translate(48 26.25)" fill="white"/>
<rect x="51" y="30.75" width="6" height="6" fill="#5296FF"/>
<rect y="74.25" width="96" height="21.75" rx="6" fill="white"/>
<path d="M11.2473 95.474L7.4283 81.7655H7.2858L7.1718 95.474H1.9563L3.2673 74.327H9.1098L13.5843 89.0045H13.7268L18.2298 74.327H24.0723L25.3833 95.474H20.1678L20.0538 81.7655H19.9113L16.0923 95.474H11.2473ZM35.0341 91.3415C35.9841 91.3415 36.8296 91.0375 37.5706 90.4295C38.3116 89.8025 38.6821 88.862 38.6821 87.608C38.6821 86.411 38.3116 85.4895 37.5706 84.8435C36.8296 84.1975 35.9841 83.8745 35.0341 83.8745C34.1031 83.8745 33.2766 84.1975 32.5546 84.8435C31.8516 85.4895 31.5001 86.411 31.5001 87.608C31.5001 88.862 31.8516 89.8025 32.5546 90.4295C33.2766 91.0375 34.1031 91.3415 35.0341 91.3415ZM35.0911 95.8445C33.8371 95.8445 32.6876 95.6545 31.6426 95.2745C30.5976 94.8755 29.6951 94.315 28.9351 93.593C28.1941 92.871 27.6146 92.0065 27.1966 90.9995C26.7786 89.9925 26.5696 88.862 26.5696 87.608C26.5696 86.335 26.7881 85.1855 27.2251 84.1595C27.6811 83.1335 28.2986 82.269 29.0776 81.566C29.8376 80.863 30.7306 80.3215 31.7566 79.9415C32.8016 79.5615 33.9131 79.3715 35.0911 79.3715C36.2501 79.3715 37.3426 79.5615 38.3686 79.9415C39.4136 80.3215 40.3256 80.863 41.1046 81.566C41.8646 82.269 42.4726 83.1335 42.9286 84.1595C43.3846 85.1855 43.6126 86.335 43.6126 87.608C43.6126 88.862 43.3941 89.9925 42.9571 90.9995C42.5391 92.0065 41.9596 92.871 41.2186 93.593C40.4586 94.315 39.5561 94.8755 38.5111 95.2745C37.4661 95.6545 36.3261 95.8445 35.0911 95.8445ZM50.9098 96.0155H45.2953V90.857H50.9098V96.0155ZM64.523 90.914C65.53 90.914 66.3565 90.895 67.0025 90.857C67.6485 90.8 68.3135 90.7145 68.9975 90.6005V95.075C68.3705 95.246 67.544 95.36 66.518 95.417C65.511 95.455 64.599 95.474 63.782 95.474H53.978V93.6785L61.73 78.887H54.5195V74.327H68.6555V76.493L61.0745 90.914H64.523ZM86.5046 95.702C85.6876 95.702 84.9181 95.5595 84.1961 95.2745C83.4741 94.9895 82.8851 94.5905 82.4291 94.0775V99.0365H77.5271V79.799H82.4291V81.1955C82.8281 80.7395 83.3886 80.3595 84.1106 80.0555C84.8516 79.7515 85.6971 79.5805 86.6471 79.5425C87.6731 79.5235 88.6231 79.6945 89.4971 80.0555C90.3901 80.3975 91.1691 80.9105 91.8341 81.5945C92.4801 82.2975 92.9836 83.1715 93.3446 84.2165C93.7246 85.2425 93.9241 86.4205 93.9431 87.7505C93.9621 89.1375 93.7816 90.3345 93.4016 91.3415C93.0216 92.3485 92.4991 93.175 91.8341 93.821C91.1501 94.467 90.3521 94.942 89.4401 95.246C88.5281 95.55 87.5496 95.702 86.5046 95.702ZM85.6781 91.3415C86.0961 91.3795 86.5141 91.3415 86.9321 91.2275C87.3501 91.0945 87.7206 90.8855 88.0436 90.6005C88.3856 90.3155 88.6516 89.926 88.8416 89.432C89.0506 88.938 89.1551 88.33 89.1551 87.608C89.1551 86.962 89.0506 86.411 88.8416 85.955C88.6516 85.48 88.4046 85.0905 88.1006 84.7865C87.7966 84.4825 87.4451 84.264 87.0461 84.131C86.6661 83.979 86.2861 83.903 85.9061 83.903C84.9371 83.903 84.1391 84.283 83.5121 85.043C82.9041 85.803 82.6001 86.81 82.6001 88.064C82.6001 88.9 82.8851 89.641 83.4551 90.287C84.0441 90.933 84.7851 91.2845 85.6781 91.3415Z" fill="#5296FF"/>
<rect width="4.5" height="0.75" transform="translate(71.25 81.75)" fill="#5296FF"/>
<rect width="3" height="2.25" transform="translate(71.25 84.7656)" fill="#5296FF"/>
<rect width="3" height="2.25" transform="translate(71.25 89.2812)" fill="#5296FF"/>
<rect width="3" height="2.25" transform="translate(71.25 93.7969)" fill="#5296FF"/>
<rect width="3" height="2.25" transform="translate(72.75 82.5)" fill="#5296FF"/>
<rect width="3" height="2.25" transform="translate(72.75 87.0156)" fill="#5296FF"/>
<rect width="3" height="2.25" transform="translate(72.75 91.5312)" fill="#5296FF"/>
<rect width="4.53125" height="4.53125" transform="translate(71.25 73.5)" fill="#5296FF"/>
</svg>
